<svg width="24" height="24" viewBox="0 0 24 24" fill="none" xmlns="http://www.w3.org/2000/svg">
<g clip-path="url(#clip0_33_7132)">
<path d="M12 2.98979C14.3869 2.99782 16.6736 3.95059 18.36 5.63979L15.986 8.01379H21.816C22.12 8.01379 22.4114 7.89305 22.6264 7.67813C22.8413 7.46322 22.962 7.17173 22.962 6.86779V1.03779L20.471 3.52879C18.7966 1.84653 16.6603 0.699549 14.333 0.233361C12.0058 -0.232826 9.59246 0.00279492 7.39931 0.91033C5.20617 1.81786 3.33202 3.35641 2.01466 5.33076C0.6973 7.30512 -0.00390342 9.62629 1.63444e-05 11.9998H2.99002C2.99266 9.611 3.94278 7.32081 5.63191 5.63168C7.32104 3.94255 9.61123 2.99244 12 2.98979Z" fill="#374957"/>
<path d="M21.0098 12C21.0131 13.7822 20.4869 15.5252 19.4978 17.0079C18.5088 18.4905 17.1015 19.6458 15.4547 20.3272C13.8079 21.0087 11.9958 21.1855 10.2483 20.8352C8.50085 20.485 6.89683 19.6235 5.63984 18.36L8.01384 15.986H1.99284C1.73964 15.9863 1.49689 16.087 1.31785 16.266C1.13881 16.445 1.03811 16.6878 1.03784 16.941V22.962L3.52884 20.471C5.20321 22.1533 7.33956 23.3002 9.66683 23.7664C11.9941 24.2326 14.4074 23.997 16.6005 23.0895C18.7937 22.1819 20.6678 20.6434 21.9852 18.669C23.3026 16.6947 24.0038 14.3735 23.9998 12H21.0098Z" fill="#374957"/>
</g>
<defs>
<clipPath id="clip0_33_7132">
<rect width="24" height="24" fill="white"/>
</clipPath>
</defs>
</svg>
